<svg xmlns="http://www.w3.org/2000/svg" viewBox="0 0 33 33">
  <defs>
    <style>
      .cls-1 {
        fill: #2d1858;
      }
    </style>
  </defs>
  <g id="location_2_" data-name="location (2)" transform="translate(-1 -4.584)">
    <g id="Group_80" data-name="Group 80" transform="translate(1 4.584)">
      <g id="Group_79" data-name="Group 79" transform="translate(0 0)">
        <path id="Path_40" data-name="Path 40" class="cls-1" d="M97.875,27.03c1.448,2.1,2.858,3.929,3.785,5.1.2.258.39.491.562.7l.277.345a.589.589,0,0,0,.888-.006l.272-.339c.171-.212.36-.446.559-.7.93-1.172,2.34-3.005,3.788-5.1a51.713,51.713,0,0,0,3.765-6.24A13.223,13.223,0,0,0,113.44,15.4a10.97,10.97,0,0,0-3.083-7.615l-.009-.008-.005-.005A10.239,10.239,0,0,0,95.514,7.75,10.95,10.95,0,0,0,92.442,15.4a13.243,13.243,0,0,0,1.669,5.392A51.7,51.7,0,0,0,97.875,27.03Zm.941-16.489a5.715,5.715,0,0,1,4.124-1.757.6.6,0,0,1,0,1.2,4.7,4.7,0,0,0-4.576,3.864,4.83,4.83,0,0,0,2.791,5.371,4.594,4.594,0,0,0,5.666-1.768,4.9,4.9,0,0,0-.58-6.061.611.611,0,0,1-.159-.584.592.592,0,0,1,.417-.429.573.573,0,0,1,.567.164,6.126,6.126,0,0,1,1.264,6.539,5.772,5.772,0,0,1-10.778,0A6.126,6.126,0,0,1,98.816,10.541Z" transform="translate(-86.441 -4.584)"/>
        <path id="Path_41" data-name="Path 41" class="cls-1" d="M33.927,395.512l-3.625-6.6a.646.646,0,0,0-.576-.331H22.1c-.924,1.248-1.768,2.324-2.391,3.1-.142.18-.27.337-.4.5h2.909a.6.6,0,0,1,0,1.2H12.785a.6.6,0,0,1,0-1.2h2.908c-.13-.16-.259-.318-.4-.5-.623-.777-1.464-1.852-2.387-3.1H5.272a.646.646,0,0,0-.575.326l-3.625,6.6a.542.542,0,0,0,0,.55.646.646,0,0,0,.572.323h31.7a.646.646,0,0,0,.572-.321A.541.541,0,0,0,33.927,395.512ZM9.25,395.181H4.536a.6.6,0,0,1,0-1.2H9.25a.6.6,0,0,1,0,1.2Zm1.669-2.667a.589.589,0,0,1-.375.255.581.581,0,0,1-.442-.089l-1.617-1.1H6.3a.6.6,0,0,1,0-1.2H8.661a.586.586,0,0,1,.327.1l1.768,1.2a.6.6,0,0,1,.251.382A.609.609,0,0,1,10.919,392.514Zm13.652.267a.591.591,0,0,1-.565-.426.606.606,0,0,1,.237-.673l1.768-1.2a.586.586,0,0,1,.328-.1H28.7a.6.6,0,0,1,0,1.2h-2.18l-1.619,1.1A.582.582,0,0,1,24.571,392.781Zm5.892,2.4H25.749a.6.6,0,0,1,0-1.2h4.714a.6.6,0,0,1,0,1.2Z" transform="translate(-1 -363.382)"/>
      </g>
    </g>
  </g>
</svg>
