<?xml version="1.0" encoding="UTF-8"?>
<svg width="320px" height="320px" viewBox="0 0 320 320" version="1.1" xmlns="http://www.w3.org/2000/svg" xmlns:xlink="http://www.w3.org/1999/xlink">
    <!-- Generator: Sketch 52.5 (67469) - http://www.bohemiancoding.com/sketch -->
    <title>Artboard Copy 2</title>
    <desc>Created with Sketch.</desc>
    <defs>
        <linearGradient x1="51.6341141%" y1="-5.76399535%" x2="51.0502383%" y2="14.1475074%" id="linearGradient-1">
            <stop stop-color="#FFB92D" offset="0%"></stop>
            <stop stop-color="#F59500" offset="100%"></stop>
        </linearGradient>
        <linearGradient x1="54.6406035%" y1="5.47099549%" x2="52.9763632%" y2="21.4369336%" id="linearGradient-2">
            <stop stop-color="#FFB92D" offset="0%"></stop>
            <stop stop-color="#F59500" offset="100%"></stop>
        </linearGradient>
        <linearGradient x1="49.9986374%" y1="57.7600336%" x2="49.9986374%" y2="84.5056149%" id="linearGradient-3">
            <stop stop-color="#A7F3CE" offset="0%"></stop>
            <stop stop-color="#61DB99" offset="100%"></stop>
        </linearGradient>
        <linearGradient x1="49.9988742%" y1="18.2844428%" x2="49.9988742%" y2="104.441226%" id="linearGradient-4">
            <stop stop-color="#FF4C54" offset="0%"></stop>
            <stop stop-color="#BE3F45" offset="100%"></stop>
        </linearGradient>
        <linearGradient x1="49.9988742%" y1="18.2782067%" x2="49.9988742%" y2="104.441195%" id="linearGradient-5">
            <stop stop-color="#FF4C54" offset="0%"></stop>
            <stop stop-color="#BE3F45" offset="100%"></stop>
        </linearGradient>
        <linearGradient x1="62.2906955%" y1="50.0012475%" x2="13.9350935%" y2="50.0012475%" id="linearGradient-6">
            <stop stop-color="#BE3F45" stop-opacity="0" offset="0%"></stop>
            <stop stop-color="#BE3F45" offset="100%"></stop>
        </linearGradient>
        <linearGradient x1="33.012784%" y1="44.270236%" x2="75.1631252%" y2="63.8079956%" id="linearGradient-7">
            <stop stop-color="#FFB92D" offset="0%"></stop>
            <stop stop-color="#F59500" offset="100%"></stop>
        </linearGradient>
        <linearGradient x1="48.6560335%" y1="65.6244974%" x2="46.9137421%" y2="103.242479%" id="linearGradient-8">
            <stop stop-color="#BE3F45" stop-opacity="0" offset="0%"></stop>
            <stop stop-color="#BE3F45" offset="100%"></stop>
        </linearGradient>
        <linearGradient x1="49.9950386%" y1="0.0414039654%" x2="49.9950386%" y2="2091.41819%" id="linearGradient-9">
            <stop stop-color="#FFF465" offset="0%"></stop>
            <stop stop-color="#FFE600" offset="100%"></stop>
        </linearGradient>
        <linearGradient x1="49.9986407%" y1="-1.40577025%" x2="49.9986407%" y2="100.000617%" id="linearGradient-10">
            <stop stop-color="#FFF465" offset="0%"></stop>
            <stop stop-color="#FFE600" offset="100%"></stop>
        </linearGradient>
        <linearGradient x1="49.9933355%" y1="-1737.58856%" x2="49.9933355%" y2="322.344674%" id="linearGradient-11">
            <stop stop-color="#FFF465" offset="0%"></stop>
            <stop stop-color="#FFE600" offset="100%"></stop>
        </linearGradient>
        <linearGradient x1="76.9905636%" y1="52.5278768%" x2="-15.430951%" y2="-10.5191309%" id="linearGradient-12">
            <stop stop-color="#BE3F45" stop-opacity="0" offset="0%"></stop>
            <stop stop-color="#BE3F45" offset="100%"></stop>
        </linearGradient>
        <linearGradient x1="49.9891747%" y1="18.6200785%" x2="49.9891747%" y2="90.9236153%" id="linearGradient-13">
            <stop stop-color="#FF4C54" offset="0%"></stop>
            <stop stop-color="#BE3F45" offset="100%"></stop>
        </linearGradient>
        <linearGradient x1="49.984314%" y1="81.3971613%" x2="49.984314%" y2="9.10170122%" id="linearGradient-14">
            <stop stop-color="#FF4C54" offset="0%"></stop>
            <stop stop-color="#BE3F45" offset="100%"></stop>
        </linearGradient>
        <linearGradient x1="-423.973341%" y1="-2042.80783%" x2="-323.983301%" y2="-1601.23181%" id="linearGradient-15">
            <stop stop-color="#A7F3CE" offset="0%"></stop>
            <stop stop-color="#61DB99" offset="100%"></stop>
        </linearGradient>
        <linearGradient x1="-423.977197%" y1="-2042.78688%" x2="-323.987157%" y2="-1601.21181%" id="linearGradient-16">
            <stop stop-color="#A7F3CE" offset="0%"></stop>
            <stop stop-color="#61DB99" offset="100%"></stop>
        </linearGradient>
        <linearGradient x1="-463.540828%" y1="-2217.54156%" x2="-363.550788%" y2="-1775.9665%" id="linearGradient-17">
            <stop stop-color="#A7F3CE" offset="0%"></stop>
            <stop stop-color="#61DB99" offset="100%"></stop>
        </linearGradient>
        <linearGradient x1="-463.543731%" y1="-2217.52061%" x2="-363.553692%" y2="-1775.94555%" id="linearGradient-18">
            <stop stop-color="#A7F3CE" offset="0%"></stop>
            <stop stop-color="#61DB99" offset="100%"></stop>
        </linearGradient>
    </defs>
    <g id="Artboard-Copy-2" stroke="none" stroke-width="1" fill="none" fill-rule="evenodd">
        <g id="purse" transform="translate(14.000000, 0.000000)">
            <path d="M267.6775,293.41 L23.5725,293.41 C10.5625,293.41 0.015625,282.863125 0.015625,269.853125 L0.015625,66.590625 C0.015625,53.580625 10.5625,43.03375 23.5725,43.03375 L267.6775,43.03375 C280.6875,43.03375 291.234375,53.580625 291.234375,66.590625 L291.234375,269.853125 C291.234375,282.863125 280.6875,293.41 267.6775,293.41 Z" id="Path" fill="url(#linearGradient-1)"></path>
            <path d="M262.23375,287.82625 L29.01625,287.82625 C16.58625,287.82625 6.509375,277.749375 6.509375,265.319375 L6.509375,71.123125 C6.509375,58.693125 16.585625,48.61625 29.01625,48.61625 L262.233125,48.61625 C274.663125,48.61625 284.74,58.6925 284.74,71.123125 L284.74,265.32 C284.740625,277.75 274.66375,287.82625 262.23375,287.82625 Z" id="Path" fill="url(#linearGradient-2)"></path>
            <path d="M275.450625,108.781875 L216.735,7.084375 C212.824375,0.31 204.16125,-2.01125 197.386875,1.900625 L12.263125,108.781875 L275.450625,108.781875 Z" id="Path" fill="url(#linearGradient-3)"></path>
            <path d="M0.015625,190.630625 L291.234375,190.630625 L291.234375,113.498125 C291.234375,103.7625 283.3425,95.870625 273.606875,95.870625 L17.643125,95.870625 C7.9075,95.870625 0.015625,103.7625 0.015625,113.498125 L0.015625,190.630625 Z" id="Path" fill="url(#linearGradient-4)"></path>
            <path d="M0.015625,161.621875 L0.015625,269.853125 C0.015625,282.863125 10.5625,293.410625 23.573125,293.410625 L267.6775,293.410625 C280.6875,293.410625 291.234375,282.86375 291.234375,269.85375 L291.234375,161.621875 C291.234375,153.58625 284.72,147.071875 276.684375,147.071875 L14.565625,147.071875 C6.53,147.071875 0.015625,153.585625 0.015625,161.621875 Z" id="Path" fill="url(#linearGradient-5)"></path>
            <path d="M247.299375,105.798125 L247.299375,293.41125 L267.6775,293.41125 C280.6875,293.41125 291.234375,282.864375 291.234375,269.854375 L291.234375,149.733125 L247.299375,105.798125 Z" id="Path" fill="url(#linearGradient-6)"></path>
            <path d="M227.435625,319.823125 L23.00625,296.080625 C9.90125,294.558125 0.015625,283.45875 0.015625,270.265625 L0.015625,64.834375 C0.015625,69.249375 3.32375,72.963125 7.708125,73.4725 L233.43125,99.68875 C246.53625,101.21125 256.421875,112.310625 256.421875,125.50375 L256.421875,294.00875 C256.421875,309.549375 242.8725,321.616875 227.435625,319.823125 Z" id="Path" fill="url(#linearGradient-7)"></path>
            <path d="M227.435625,278.789375 L23.00625,255.046875 C9.90125,253.524375 0.015625,242.425 0.015625,229.231875 L0.015625,270.265625 C0.015625,283.45875 9.90125,294.55875 23.00625,296.080625 L227.435625,319.823125 C242.8725,321.61625 256.4225,309.549375 256.4225,294.008125 L256.4225,252.974375 C256.421875,268.515625 242.8725,280.581875 227.435625,278.789375 Z" id="Path" fill="url(#linearGradient-8)"></path>
            <path d="M18.34375,96.85375 C18.1725,96.85375 17.99875,96.84375 17.824375,96.825 L8.469375,95.79625 C5.885625,95.511875 4.02125,93.188125 4.305625,90.605 C4.59,88.021875 6.915625,86.159375 9.496875,86.44125 L18.851875,87.47 C21.435625,87.754375 23.3,90.078125 23.015625,92.66125 C22.750625,95.070625 20.711875,96.85375 18.34375,96.85375 Z" id="Path" fill="url(#linearGradient-9)"></path>
            <path d="M210.571875,304.319375 C210.374375,304.319375 210.173125,304.30625 209.971875,304.28125 L191.79,301.969375 C189.2125,301.641875 187.3875,299.285625 187.715625,296.706875 C188.04375,294.129375 190.399375,292.315 192.978125,292.6325 L211.16,294.944375 C213.7375,295.271875 215.563125,297.628125 215.234375,300.206875 C214.93125,302.583125 212.90625,304.319375 210.571875,304.319375 Z M228.468125,301.99 C226.703125,301.99 225.01,300.991875 224.208125,299.288125 C223.1,296.9375 224.108125,294.133125 226.459375,293.02625 C231.23375,290.77625 234.824375,287.045 236.31125,282.7875 C237.168125,280.335 239.853125,279.04125 242.305625,279.89625 C244.75875,280.753125 246.05375,283.436875 245.196875,285.890625 C242.84875,292.614375 237.619375,298.1725 230.470625,301.54 C229.8225,301.845 229.140625,301.99 228.468125,301.99 Z M174.20875,299.695625 C174.01125,299.695625 173.81,299.6825 173.60875,299.6575 L155.426875,297.345625 C152.849375,297.018125 151.02375,294.661875 151.3525,292.083125 C151.680625,289.505625 154.03625,287.690625 156.615,288.00875 L174.796875,290.320625 C177.374375,290.648125 179.2,293.004375 178.87125,295.583125 C178.568125,297.95875 176.541875,299.695625 174.20875,299.695625 Z M137.845625,295.07125 C137.648125,295.07125 137.4475,295.058125 137.245625,295.033125 L119.06375,292.72125 C116.48625,292.39375 114.660625,290.0375 114.989375,287.45875 C115.3175,284.88125 117.67375,283.0575 120.251875,283.384375 L138.43375,285.69625 C141.01125,286.02375 142.836875,288.38 142.508125,290.95875 C142.205,293.334375 140.17875,295.07125 137.845625,295.07125 Z M101.48125,290.446875 C101.28375,290.446875 101.083125,290.43375 100.88125,290.40875 L82.69875,288.09625 C80.120625,287.768125 78.295625,285.4125 78.624375,282.83375 C78.9525,280.255625 81.309375,278.440625 83.886875,278.759375 L102.069375,281.071875 C104.6475,281.4 106.4725,283.755625 106.14375,286.334375 C105.841875,288.71125 103.815625,290.446875 101.48125,290.446875 Z M65.118125,285.8225 C64.920625,285.8225 64.72,285.809375 64.518125,285.784375 L46.335625,283.471875 C43.7575,283.14375 41.9325,280.788125 42.26125,278.209375 C42.589375,275.63125 44.94625,273.815625 47.52375,274.135 L65.70625,276.4475 C68.284375,276.775625 70.109375,279.13125 69.780625,281.71 C69.478125,284.086875 67.4525,285.8225 65.118125,285.8225 Z M241.81,270.838125 C239.210625,270.838125 237.104375,268.731875 237.104375,266.1325 L237.104375,247.804375 C237.104375,245.205 239.210625,243.09875 241.81,243.09875 C244.409375,243.09875 246.515625,245.205 246.515625,247.804375 L246.515625,266.1325 C246.51625,268.731875 244.41,270.838125 241.81,270.838125 Z M241.81,234.1825 C239.210625,234.1825 237.104375,232.07625 237.104375,229.476875 L237.104375,211.14875 C237.104375,208.549375 239.210625,206.443125 241.81,206.443125 C244.409375,206.443125 246.515625,208.549375 246.515625,211.14875 L246.515625,229.476875 C246.51625,232.075625 244.41,234.1825 241.81,234.1825 Z M241.81,197.52625 C239.210625,197.52625 237.104375,195.42 237.104375,192.820625 L237.104375,174.4925 C237.104375,171.893125 239.210625,169.786875 241.81,169.786875 C244.409375,169.786875 246.515625,171.893125 246.515625,174.4925 L246.515625,192.820625 C246.51625,195.419375 244.41,197.52625 241.81,197.52625 Z M241.81,160.87 C239.210625,160.87 237.104375,158.76375 237.104375,156.164375 L237.104375,137.83625 C237.104375,135.236875 239.210625,133.130625 241.81,133.130625 C244.409375,133.130625 246.515625,135.236875 246.515625,137.83625 L246.515625,156.164375 C246.51625,158.763125 244.41,160.87 241.81,160.87 Z M235.22875,126.091875 C234.066875,126.091875 232.9025,125.66375 231.993125,124.801875 C228.505,121.496875 223.664375,119.39125 218.36125,118.871875 L218.236875,118.85875 C215.6525,118.580625 213.783125,116.26 214.061875,113.67625 C214.34,111.091875 216.66,109.221875 219.244375,109.50125 L219.324375,109.51 C226.65375,110.228125 233.4675,113.234375 238.466875,117.97 C240.35375,119.7575 240.43375,122.73625 238.64625,124.623125 C237.72,125.59875 236.475625,126.091875 235.22875,126.091875 Z M200.526875,116.883125 C200.355625,116.883125 200.181875,116.873125 200.0075,116.854375 L181.789375,114.85125 C179.20625,114.566875 177.34125,112.243125 177.625625,109.66 C177.91,107.076875 180.235625,105.2175 182.816875,105.49625 L201.035,107.499375 C203.618125,107.78375 205.483125,110.1075 205.19875,112.690625 C204.934375,115.099375 202.895,116.883125 200.526875,116.883125 Z M164.09125,112.876875 C163.92,112.876875 163.74625,112.866875 163.571875,112.848125 L145.353125,110.845 C142.77,110.560625 140.905,108.236875 141.189375,105.65375 C141.473125,103.07 143.8025,101.20875 146.380625,101.49 L164.599375,103.493125 C167.1825,103.7775 169.0475,106.10125 168.763125,108.684375 C168.498125,111.09375 166.459375,112.876875 164.09125,112.876875 Z M127.65375,108.87125 C127.4825,108.87125 127.30875,108.86125 127.134375,108.8425 L108.91625,106.839375 C106.333125,106.555 104.468125,104.23125 104.7525,101.648125 C105.03625,99.065 107.360625,97.20375 109.94375,97.484375 L128.161875,99.4875 C130.745,99.771875 132.61,102.095625 132.325625,104.67875 C132.06125,107.0875 130.0225,108.87125 127.65375,108.87125 Z M91.216875,104.865625 C91.045625,104.865625 90.871875,104.855625 90.6975,104.836875 L72.479375,102.83375 C69.895625,102.549375 68.03125,100.225625 68.315625,97.6425 C68.599375,95.06 70.92125,93.199375 73.506875,93.47875 L91.725,95.481875 C94.308125,95.76625 96.173125,98.09 95.88875,100.673125 C95.625,103.081875 93.585625,104.865625 91.216875,104.865625 Z M54.78,100.859375 C54.60875,100.859375 54.435,100.849375 54.260625,100.830625 L36.0425,98.8275 C33.459375,98.543125 31.594375,96.219375 31.87875,93.63625 C32.163125,91.05375 34.485625,89.19375 37.07,89.4725 L55.288125,91.475625 C57.871875,91.76 59.73625,94.08375 59.451875,96.666875 C59.1875,99.075625 57.148125,100.859375 54.78,100.859375 Z" id="Shape" fill="url(#linearGradient-10)" fill-rule="nonzero"></path>
            <path d="M28.710625,281.191875 C28.513125,281.191875 28.313125,281.179375 28.11125,281.15375 L18.774375,279.966875 C16.19625,279.639375 14.370625,277.283125 14.699375,274.705 C15.026875,272.126875 17.383125,270.303125 19.96125,270.63 L29.298125,271.816875 C31.87625,272.144375 33.701875,274.500625 33.373125,277.07875 C33.070625,279.455625 31.044375,281.191875 28.710625,281.191875 Z" id="Path" fill="url(#linearGradient-11)"></path>
            <path d="M201.605,35.0425 L171.4875,51.43125 C167.564375,53.565625 162.65375,52.11625 160.51875,48.193125 C158.384375,44.27 159.83375,39.359375 163.756875,37.224375 L193.875,20.83625 C197.798125,18.701875 202.70875,20.15125 204.84375,24.074375 C206.978125,27.996875 205.52875,32.908125 201.605,35.0425 Z" id="Path" fill="#61DB99"></path>
            <path d="M256.421875,227.388125 L226.53375,197.5 C222.316875,192.908125 216.265625,190.028125 209.54,190.028125 C196.79875,190.028125 186.47,200.3575 186.47,213.098125 C186.47,219.82375 189.35,225.875625 193.941875,230.091875 L256.4225,292.5725 L256.4225,227.388125 L256.421875,227.388125 Z" id="Path" fill="url(#linearGradient-12)"></path>
            <circle id="Oval" fill="url(#linearGradient-13)" cx="209.5375" cy="213.095" r="23.07"></circle>
            <circle id="Oval" fill="url(#linearGradient-14)" cx="209.5375" cy="213.095" r="15.92125"></circle>
            <circle id="Oval" fill="url(#linearGradient-15)" cx="203.48875" cy="207.046875" r="3.294375"></circle>
            <circle id="Oval" fill="url(#linearGradient-16)" cx="215.58625" cy="207.046875" r="3.294375"></circle>
            <circle id="Oval" fill="url(#linearGradient-17)" cx="203.48875" cy="219.15" r="3.294375"></circle>
            <circle id="Oval" fill="url(#linearGradient-18)" cx="215.58625" cy="219.15" r="3.294375"></circle>
        </g>
    </g>
</svg>