<svg xmlns="http://www.w3.org/2000/svg" viewBox="0 0 14 14">
  <defs>
    <style>
      .cls-1 {
        fill: #fff;
      }
    </style>
  </defs>
  <path id="Path_6" data-name="Path 6" class="cls-1" d="M13.793,12.77,10.332,9.3a5.561,5.561,0,0,0,1.374-3.641A5.759,5.759,0,0,0,5.853,0,5.759,5.759,0,0,0,0,5.659a5.759,5.759,0,0,0,5.853,5.659,5.809,5.809,0,0,0,3.359-1.033l3.461,3.494a.761.761,0,0,0,.56.221.838.838,0,0,0,.534-.2A.718.718,0,0,0,13.793,12.77ZM5.853,1.476a4.253,4.253,0,0,1,4.326,4.183A4.253,4.253,0,0,1,5.853,9.842,4.253,4.253,0,0,1,1.527,5.659,4.253,4.253,0,0,1,5.853,1.476Z"/>
</svg>
