<?xml version="1.0" encoding="UTF-8"?>
<svg width="320px" height="320px" viewBox="0 0 320 320" version="1.1" xmlns="http://www.w3.org/2000/svg" xmlns:xlink="http://www.w3.org/1999/xlink">
    <!-- Generator: Sketch 52.5 (67469) - http://www.bohemiancoding.com/sketch -->
    <title>Artboard Copy</title>
    <desc>Created with Sketch.</desc>
    <g id="Artboard-Copy" stroke="none" stroke-width="1" fill="none" fill-rule="evenodd">
        <g id="translation">
            <path d="M165.5175,0 C80.19875,0 11.034375,69.164375 11.034375,154.4825 C11.034375,183.329375 18.963125,210.314375 32.7275,233.419375 L0.42625,312.37875 C-1.42625,316.90625 3.09375,321.426875 7.62125,319.574375 L86.580625,287.273125 C109.685,301.036875 136.67,308.965625 165.516875,308.965625 C250.835625,308.965625 320,239.800625 320,154.4825 C320,69.164375 250.835625,0 165.5175,0 Z" id="Path" fill="#E4EAF6"></path>
            <circle id="Oval" fill="#00D2FF" cx="165.5175" cy="154.4825" r="132.41375"></circle>
            <circle id="Oval" fill="#8CE6FF" cx="226.206875" cy="88.275625" r="27.58625"></circle>
            <circle id="Oval" fill="#9BEBFF" cx="264.8275" cy="121.379375" r="11.034375"></circle>
            <path d="M115.861875,154.4825 C115.861875,81.351875 138.093125,22.06875 165.516875,22.06875 C92.38625,22.06875 33.103125,81.3525 33.103125,154.4825 C33.103125,227.6125 92.386875,286.89625 165.516875,286.89625 C138.093125,286.89625 115.861875,227.613125 115.861875,154.4825 Z" id="Path" fill="#18BDF6"></path>
            <path d="M273.035625,77.24125 L235.198125,77.24125 C227.525625,56.52 216.85125,39.473125 204.269375,27.845 C192.010625,24.098125 179.0025,22.069375 165.516875,22.069375 C152.03125,22.069375 139.023125,24.098125 126.764375,27.845 C114.1825,39.4725 103.506875,56.52 95.835625,77.24125 L57.998125,77.24125 C55.4425,80.791875 53.061875,84.47375 50.861875,88.275625 L92.13625,88.275625 C86.6225,106.5625 83.318125,127.141875 82.83875,148.965 L33.24375,148.965 C33.16875,150.796875 33.10375,152.631875 33.10375,154.4825 C33.10375,156.333125 33.16875,158.168125 33.24375,160 L82.84,160 C83.368125,184.048125 87.3275,206.585625 93.893125,226.206875 L54.238125,226.206875 C56.70375,230.024375 59.353125,233.7075 62.186875,237.24125 L97.985,237.24125 C105.433125,255.4475 115.26625,270.520625 126.684375,281.096875 C138.965625,284.859375 152.0025,286.89625 165.5175,286.89625 C179.0325,286.89625 192.07,284.86 204.3525,281.096875 C215.770625,270.520625 225.603125,255.448125 233.05125,237.24125 L268.849375,237.24125 C271.683125,233.7075 274.3325,230.02375 276.798125,226.206875 L237.143125,226.206875 C243.70875,206.585625 247.668125,184.048125 248.19625,160 L297.7925,160 C297.8675,158.168125 297.9325,156.333125 297.9325,154.4825 C297.9325,152.631875 297.8675,150.796875 297.7925,148.965 L248.19625,148.965 C247.716875,127.14125 244.413125,106.5625 238.89875,88.275625 L280.173125,88.275625 C277.971875,84.47375 275.59125,80.791875 273.035625,77.24125 Z M160,286.46625 C139.653125,283.5925 121.660625,264.998125 109.586875,237.241875 L160,237.241875 L160,286.46625 Z M160,226.206875 L105.27375,226.206875 C98.53,206.96875 94.411875,184.328125 93.868125,160 L160,160 L160,226.206875 Z M160,148.965625 L93.86875,148.965625 C94.360625,126.925625 97.78875,106.2725 103.441875,88.27625 L160,88.27625 L160,148.965625 Z M160,77.24125 L107.315,77.24125 C119.338125,46.451875 138.3325,25.560625 160,22.5 L160,77.24125 Z M171.034375,22.5 C192.70125,25.560625 211.695625,46.451875 223.719375,77.24125 L171.034375,77.24125 L171.034375,22.5 Z M171.034375,286.46625 L171.034375,237.24125 L221.4475,237.24125 C209.37375,264.9975 191.38125,283.591875 171.034375,286.46625 Z M225.76,226.206875 L171.034375,226.206875 L171.034375,160 L237.165625,160 C236.621875,184.328125 232.50375,206.96875 225.76,226.206875 Z M171.034375,148.965625 L171.034375,88.27625 L227.5925,88.27625 C233.24625,106.2725 236.67375,126.925625 237.165625,148.965625 L171.034375,148.965625 Z" id="Shape" fill="#EFF2FA" fill-rule="nonzero"></path>
            <path d="M160,286.46625 C139.653125,283.5925 121.660625,264.998125 109.586875,237.241875 L126.768125,237.241875 C125.705625,233.708125 124.7125,230.024375 123.7875,226.2075 L105.274375,226.2075 C98.530625,206.969375 94.4125,184.32875 93.86875,160.000625 L115.914375,160.000625 C115.88625,158.16875 115.861875,156.33375 115.861875,154.483125 C115.861875,152.6325 115.88625,150.7975 115.914375,148.965625 L93.86875,148.965625 C94.360625,126.925625 97.78875,106.2725 103.441875,88.27625 L122.52125,88.27625 C123.346875,84.474375 124.239375,80.791875 125.196875,77.241875 L107.314375,77.241875 C119.338125,46.451875 138.3325,25.560625 160,22.5 L160,22.901875 C161.8125,22.3675 163.65125,22.06875 165.518125,22.06875 C162.50125,22.06875 159.518125,22.205 156.551875,22.404375 C155.830625,22.4525 155.110625,22.50875 154.391875,22.56875 C151.48625,22.8125 148.596875,23.11625 145.7475,23.544375 C145.72,23.54875 145.6925,23.550625 145.665,23.555 C142.6675,24.0075 139.711875,24.581875 136.784375,25.23125 C136.28,25.343125 135.77875,25.461875 135.276875,25.57875 C132.408125,26.250625 129.565,26.989375 126.77125,27.843125 C126.77125,27.843125 126.766875,27.84375 126.765,27.844375 C114.183125,39.471875 103.5075,56.519375 95.83625,77.240625 L57.99875,77.240625 C55.443125,80.79125 53.063125,84.4725 50.8625,88.275 L92.136875,88.275 C86.623125,106.561875 83.31875,127.14125 82.839375,148.964375 L33.24375,148.964375 C33.16875,150.79625 33.10375,152.63125 33.10375,154.481875 C33.10375,156.3325 33.16875,158.1675 33.24375,159.999375 L82.84,159.999375 C83.368125,184.0475 87.3275,206.585 93.893125,226.20625 L54.238125,226.20625 C56.703125,230.0225 59.351875,233.70625 62.185625,237.239375 L62.185625,237.240625 L97.98375,237.240625 C105.431875,255.446875 115.265,270.52 126.683125,281.09625 C126.685,281.096875 126.6875,281.096875 126.69,281.0975 C129.478125,281.95125 132.316875,282.689375 135.179375,283.361875 C135.70875,283.48625 136.238125,283.610625 136.77,283.72875 C139.68875,284.37625 142.635,284.95125 145.6225,285.403125 C145.65125,285.4075 145.680625,285.41 145.709375,285.414375 C148.563125,285.84375 151.45625,286.148125 154.3675,286.3925 C155.09,286.4525 155.814375,286.50875 156.540625,286.558125 C159.51,286.759375 162.496875,286.89625 165.518125,286.89625 C163.651875,286.89625 161.813125,286.5975 160.000625,286.063125 L160.000625,286.46625 L160,286.46625 Z" id="Path" fill="#D7DEED"></path>
        </g>
    </g>
</svg>