<svg xmlns="http://www.w3.org/2000/svg" viewBox="0 0 40 33">
  <defs>
    <style>
      .cls-1 {
        fill: #2d1858;
      }
    </style>
  </defs>
  <g id="location" transform="translate(0 -48)">
    <g id="Group_74" data-name="Group 74" transform="translate(5.077 73.385)">
      <g id="Group_73" data-name="Group 73">
        <path id="Path_37" data-name="Path 37" class="cls-1" d="M90.115,368a3.725,3.725,0,0,0-3.5,2.538H71.233a3.728,3.728,0,0,0-3.5-2.538,3.808,3.808,0,0,0,0,7.615,3.725,3.725,0,0,0,3.5-2.538H86.613a3.728,3.728,0,0,0,3.5,2.538,3.808,3.808,0,0,0,0-7.615Z" transform="translate(-64 -368)"/>
      </g>
    </g>
    <g id="Group_76" data-name="Group 76" transform="translate(0 48)">
      <g id="Group_75" data-name="Group 75">
        <path id="Path_38" data-name="Path 38" class="cls-1" d="M8.885,48A8.894,8.894,0,0,0,0,56.885c0,4.559,7.128,12.634,7.94,13.54a1.269,1.269,0,0,0,1.889,0c.812-.906,7.94-8.981,7.94-13.54A8.894,8.894,0,0,0,8.885,48Zm0,12.692a3.808,3.808,0,1,1,3.808-3.808A3.809,3.809,0,0,1,8.885,60.692Z" transform="translate(0 -48)"/>
      </g>
    </g>
    <g id="Group_78" data-name="Group 78" transform="translate(22.231 48)">
      <g id="Group_77" data-name="Group 77">
        <path id="Path_39" data-name="Path 39" class="cls-1" d="M296.885,48A8.894,8.894,0,0,0,288,56.885c0,4.559,7.128,12.634,7.94,13.54a1.269,1.269,0,0,0,1.889,0c.812-.906,7.94-8.981,7.94-13.54A8.894,8.894,0,0,0,296.885,48Zm0,12.692a3.808,3.808,0,1,1,3.808-3.808A3.809,3.809,0,0,1,296.885,60.692Z" transform="translate(-288 -48)"/>
      </g>
    </g>
  </g>
</svg>
