<?xml version="1.0" encoding="UTF-8"?>
<svg width="320px" height="320px" viewBox="0 0 320 320" version="1.1" xmlns="http://www.w3.org/2000/svg" xmlns:xlink="http://www.w3.org/1999/xlink">
    <!-- Generator: Sketch 52.5 (67469) - http://www.bohemiancoding.com/sketch -->
    <title>Artboard</title>
    <desc>Created with Sketch.</desc>
    <defs>
        <linearGradient x1="54.6177399%" y1="53.8390561%" x2="91.7954576%" y2="65.052893%" id="linearGradient-1">
            <stop stop-color="#E2EDF2" offset="0%"></stop>
            <stop stop-color="#9FC7E2" offset="100%"></stop>
        </linearGradient>
        <linearGradient x1="81.277298%" y1="60.7017428%" x2="65.8222851%" y2="55.5525508%" id="linearGradient-2">
            <stop stop-color="#E2EDF2" offset="0%"></stop>
            <stop stop-color="#9FC7E2" offset="100%"></stop>
        </linearGradient>
        <linearGradient x1="80.1398916%" y1="62.505091%" x2="64.4091015%" y2="56.393698%" id="linearGradient-3">
            <stop stop-color="#E2EDF2" offset="0%"></stop>
            <stop stop-color="#9FC7E2" offset="100%"></stop>
        </linearGradient>
        <linearGradient x1="66.5094413%" y1="55.294799%" x2="109.265806%" y2="68.5044709%" id="linearGradient-4">
            <stop stop-color="#654E48" offset="0%"></stop>
            <stop stop-color="#503837" offset="100%"></stop>
        </linearGradient>
        <linearGradient x1="-8.95861933%" y1="33.7100018%" x2="-38.4693279%" y2="25.0228214%" id="linearGradient-5">
            <stop stop-color="#E2EDF2" offset="0%"></stop>
            <stop stop-color="#9FC7E2" offset="100%"></stop>
        </linearGradient>
        <linearGradient x1="65.1435401%" y1="86.4779564%" x2="25.2469925%" y2="27.4080545%" id="linearGradient-6">
            <stop stop-color="#9FC7E2" stop-opacity="0" offset="0%"></stop>
            <stop stop-color="#9FC7E2" offset="100%"></stop>
        </linearGradient>
        <linearGradient x1="55.6198925%" y1="52.0964086%" x2="98.0231857%" y2="65.9541761%" id="linearGradient-7">
            <stop stop-color="#654E48" offset="0%"></stop>
            <stop stop-color="#503837" offset="100%"></stop>
        </linearGradient>
        <linearGradient x1="58.4179354%" y1="54.8833001%" x2="96.7628375%" y2="69.3055348%" id="linearGradient-8">
            <stop stop-color="#654E48" offset="0%"></stop>
            <stop stop-color="#503837" offset="100%"></stop>
        </linearGradient>
        <linearGradient x1="75.8023309%" y1="104.869549%" x2="31.9364549%" y2="18.3019069%" id="linearGradient-9">
            <stop stop-color="#3E2E28" stop-opacity="0" offset="0%"></stop>
            <stop stop-color="#503837" offset="100%"></stop>
        </linearGradient>
        <linearGradient x1="127.219614%" y1="208.263693%" x2="-101.341784%" y2="-139.3321%" id="linearGradient-10">
            <stop stop-color="#3E2E28" stop-opacity="0" offset="0%"></stop>
            <stop stop-color="#503837" offset="100%"></stop>
        </linearGradient>
        <linearGradient x1="35.5167789%" y1="99.7601226%" x2="62.9132988%" y2="-3.71394805%" id="linearGradient-11">
            <stop stop-color="#E2EDF2" offset="0%"></stop>
            <stop stop-color="#9FC7E2" offset="100%"></stop>
        </linearGradient>
        <linearGradient x1="56.1079809%" y1="48.9780716%" x2="92.9836302%" y2="59.8453604%" id="linearGradient-12">
            <stop stop-color="#E2EDF2" offset="0%"></stop>
            <stop stop-color="#9FC7E2" offset="100%"></stop>
        </linearGradient>
        <linearGradient x1="-33.7704649%" y1="35.7519761%" x2="100.968971%" y2="59.0704794%" id="linearGradient-13">
            <stop stop-color="#E2EDF2" offset="0%"></stop>
            <stop stop-color="#9FC7E2" offset="100%"></stop>
        </linearGradient>
        <linearGradient x1="54.7792006%" y1="50.7903444%" x2="90.9222199%" y2="62.3884471%" id="linearGradient-14">
            <stop stop-color="#E2EDF2" offset="0%"></stop>
            <stop stop-color="#9FC7E2" offset="100%"></stop>
        </linearGradient>
        <linearGradient x1="123.835462%" y1="78.2946022%" x2="205.26508%" y2="109.490098%" id="linearGradient-15">
            <stop stop-color="#E2EDF2" offset="0%"></stop>
            <stop stop-color="#9FC7E2" offset="100%"></stop>
        </linearGradient>
        <linearGradient x1="51.0186272%" y1="49.6241138%" x2="131.430719%" y2="74.0020902%" id="linearGradient-16">
            <stop stop-color="#E2EDF2" offset="0%"></stop>
            <stop stop-color="#9FC7E2" offset="100%"></stop>
        </linearGradient>
        <linearGradient x1="51.112312%" y1="49.4922152%" x2="139.432146%" y2="82.2798492%" id="linearGradient-17">
            <stop stop-color="#E2EDF2" offset="0%"></stop>
            <stop stop-color="#9FC7E2" offset="100%"></stop>
        </linearGradient>
        <linearGradient x1="45.2916635%" y1="74.023548%" x2="-4.30803474%" y2="4.12090449%" id="linearGradient-18">
            <stop stop-color="#9FC7E2" stop-opacity="0" offset="0%"></stop>
            <stop stop-color="#9FC7E2" offset="100%"></stop>
        </linearGradient>
        <linearGradient x1="96.9964825%" y1="26.5134706%" x2="19.1443188%" y2="65.4238021%" id="linearGradient-19">
            <stop stop-color="#654E48" offset="0%"></stop>
            <stop stop-color="#503837" offset="100%"></stop>
        </linearGradient>
        <linearGradient x1="-134.045929%" y1="16.4639083%" x2="85.2066494%" y2="56.757939%" id="linearGradient-20">
            <stop stop-color="#654E48" offset="0%"></stop>
            <stop stop-color="#503837" offset="100%"></stop>
        </linearGradient>
        <linearGradient x1="-108.75639%" y1="19.4331559%" x2="84.4968055%" y2="56.1569951%" id="linearGradient-21">
            <stop stop-color="#654E48" offset="0%"></stop>
            <stop stop-color="#503837" offset="100%"></stop>
        </linearGradient>
        <linearGradient x1="-5.7365449%" y1="31.3696214%" x2="144.499356%" y2="79.5828036%" id="linearGradient-22">
            <stop stop-color="#654E48" offset="0%"></stop>
            <stop stop-color="#503837" offset="100%"></stop>
        </linearGradient>
        <linearGradient x1="261.170794%" y1="482.323057%" x2="1.5086892%" y2="5.52454641%" id="linearGradient-23">
            <stop stop-color="#3E2E28" stop-opacity="0" offset="0%"></stop>
            <stop stop-color="#503837" offset="100%"></stop>
        </linearGradient>
        <linearGradient x1="85.4197415%" y1="103.728293%" x2="-155.447588%" y2="-159.146342%" id="linearGradient-24">
            <stop stop-color="#3E2E28" stop-opacity="0" offset="0%"></stop>
            <stop stop-color="#503837" offset="100%"></stop>
        </linearGradient>
        <linearGradient x1="188.076045%" y1="293.61619%" x2="-85.7107384%" y2="-113.70654%" id="linearGradient-25">
            <stop stop-color="#3E2E28" stop-opacity="0" offset="0%"></stop>
            <stop stop-color="#503837" offset="100%"></stop>
        </linearGradient>
        <linearGradient x1="23.1594329%" y1="47.1691653%" x2="76.9536908%" y2="52.8594322%" id="linearGradient-26">
            <stop stop-color="#E2EDF2" offset="0%"></stop>
            <stop stop-color="#9FC7E2" offset="100%"></stop>
        </linearGradient>
        <linearGradient x1="-42.7234982%" y1="34.191647%" x2="68.0301042%" y2="53.3687414%" id="linearGradient-27">
            <stop stop-color="#E2EDF2" offset="0%"></stop>
            <stop stop-color="#9FC7E2" offset="100%"></stop>
        </linearGradient>
        <linearGradient x1="46.9120308%" y1="49.6487077%" x2="55.6156782%" y2="50.6422959%" id="linearGradient-28">
            <stop stop-color="#FFE7A5" offset="0%"></stop>
            <stop stop-color="#FFBF5C" offset="96.6%"></stop>
        </linearGradient>
    </defs>
    <g id="Artboard" stroke="none" stroke-width="1" fill="none" fill-rule="evenodd">
        <g id="finish" transform="translate(0.000000, 9.000000)">
            <path d="M264.67375,270.15 C217.49,265.984375 173.196875,251.47 132.661875,226.889375 C126.618125,223.224375 123.88875,215.88 126.075625,209.158125 L174.508125,60.2625 C215.82875,87.49375 261.260625,103.95 309.840625,109.31625 C318.62625,110.286875 323.02,120.43125 317.674375,127.470625 C306.793125,141.798125 295.843125,156.07125 284.82375,170.2925 C275.926875,181.775 271.664375,196.1775 272.870625,210.653125 C274.181875,226.3825 275.536875,242.10875 276.93125,257.830625 C277.554375,264.85375 271.69625,270.77 264.67375,270.15 Z" id="Path" fill="url(#linearGradient-1)"></path>
            <path d="M150.33875,172.545625 C144.295,168.880625 141.565625,161.53625 143.7525,154.814375 L126.07625,209.1575 C123.889375,215.879375 126.61875,223.223125 132.6625,226.88875 C159.526875,243.18 188.0425,255.044375 217.955625,262.409375 L235.631875,208.06625 C205.719375,200.700625 177.2025,188.836875 150.33875,172.545625 Z" id="Path" fill="url(#linearGradient-2)"></path>
            <path d="M169.010625,115.140625 C194.105,130.35875 224.11375,142.838125 254.1875,151.019375 L270.045625,102.26625 C270.04625,102.26625 270.046875,102.26625 270.046875,102.26625 C236.300625,93.956875 204.3325,79.918125 174.5075,60.261875 L162.425,97.40875 C160.238125,104.13125 162.9675,111.475 169.010625,115.140625 Z" id="Path" fill="url(#linearGradient-3)"></path>
            <path d="M273.2275,214.86625 C260.470625,213.36625 247.933125,211.095625 235.631875,208.06625 L217.955625,262.409375 C233.178125,266.1575 248.76125,268.745 264.674375,270.149375 C271.696875,270.769375 277.554375,264.853125 276.931875,257.830625 C275.66125,243.5125 274.42875,229.190625 273.2275,214.86625 Z" id="Path" fill="url(#linearGradient-4)"></path>
            <path d="M272.870625,210.653125 C271.66375,196.1775 275.92625,181.775 284.82375,170.2925 C287.69125,166.591875 290.54125,162.878125 293.39875,159.17 C280.58875,157.370625 267.383125,154.60875 254.188125,151.01875 L235.631875,208.06625 C247.93375,211.095625 260.470625,213.365625 273.2275,214.86625 C273.11,213.461875 272.9875,212.0575 272.870625,210.653125 Z" id="Path" fill="url(#linearGradient-5)"></path>
            <path d="M244.26125,94.68125 C219.930625,86.3275 196.629375,74.84125 174.508125,60.2625 L126.075625,209.158125 C123.88875,215.88 126.618125,223.22375 132.661875,226.889375 C173.19625,251.47125 217.49,265.984375 264.67375,270.15 C271.69625,270.77 277.554375,264.85375 276.93125,257.83125 C275.53625,242.10875 274.181875,226.3825 272.870625,210.65375 C271.72125,196.864375 275.545,183.146875 283.6,171.950625 L244.26125,94.68125 Z" id="Path" fill="url(#linearGradient-6)"></path>
            <path d="M169.010625,115.140625 C162.966875,111.475625 160.2375,104.13125 162.424375,97.409375 L143.751875,154.814375 C141.565,161.53625 144.29375,168.88 150.338125,172.545625 C177.2025,188.836875 205.718125,200.70125 235.63125,208.06625 L254.1875,151.01875 C224.114375,142.8375 194.105625,130.358125 169.010625,115.140625 Z" id="Path" fill="url(#linearGradient-7)"></path>
            <path d="M317.67375,127.470625 C323.019375,120.431875 318.625,110.286875 309.84,109.31625 C296.325,107.82375 283.05375,105.469375 270.045625,102.26625 L254.1875,151.019375 C267.3825,154.60875 280.5875,157.37125 293.398125,159.170625 C301.52375,148.63 309.624375,138.07 317.67375,127.470625 Z" id="Path" fill="url(#linearGradient-8)"></path>
            <path d="M254.18625,151.020625 L235.630625,208.065625 C205.72125,200.699375 177.200625,188.838125 150.336875,172.541875 C144.293125,168.8775 141.566875,161.53375 143.753125,154.814375 L162.425,97.41125 C160.239375,104.130625 162.965,111.474375 169.00875,115.13875 C194.108125,130.3575 224.11375,142.835625 254.18625,151.020625 Z" id="Path" fill="url(#linearGradient-9)"></path>
            <path d="M275.524375,156.095 C268.4475,154.65875 261.315625,152.95625 254.18625,151.02 L261.499375,128.536875 L275.524375,156.095 Z" id="Path" fill="url(#linearGradient-10)"></path>
            <path d="M203.654375,216.405625 C203.654375,216.405625 185.01875,201.85625 133.873125,185.185625 L126.075625,209.1575 C123.880625,215.904375 126.654375,223.246875 132.721875,226.924375 C145.791875,234.84625 159.2525,241.719375 173.074375,247.5375 C182.744375,251.608125 193.830625,246.608125 197.075625,236.630625 L203.654375,216.405625 Z" id="Path" fill="url(#linearGradient-11)"></path>
            <path d="M190.675,216.9475 C146.415,190.19 97.679375,175.42125 45.599375,173.010625 C62.96375,119.62875 80.326875,66.246875 97.69125,12.865 C145.0725,15.05875 189.685,27.479375 230.6775,49.851875 C244.053125,57.151875 250.313125,72.9625 245.599375,87.453125 C234.141875,122.67625 197.500625,235.323125 197.500625,235.323125 C199.7675,228.356875 196.94375,220.736875 190.675,216.9475 Z" id="Path" fill="url(#linearGradient-12)"></path>
            <path d="M217.116875,91.5425 C210.375625,87.86375 203.535,84.459375 196.601875,81.319375 L178.435,137.16875 C185.368125,140.30875 192.20875,143.7125 198.95,147.391875 C212.325625,154.691875 218.585625,170.5025 213.871875,184.993125 C221.22625,162.38375 228.11125,141.21625 232.03875,129.14375 C236.7525,114.653125 230.4925,98.841875 217.116875,91.5425 Z" id="Path" fill="url(#linearGradient-13)"></path>
            <path d="M140.989375,62.404375 L122.8225,118.25375 C141.94625,122.735625 160.505,129.049375 178.435,137.16875 L196.601875,81.319375 C178.67125,73.2 160.113125,66.88625 140.989375,62.404375 Z" id="Path" fill="url(#linearGradient-14)"></path>
            <path d="M84.13,54.555625 C78.074375,73.171875 72.01875,91.78875 65.963125,110.405 C85.4025,111.305 104.374375,113.929375 122.8225,118.25375 L140.989375,62.404375 C122.54125,58.080625 103.56875,55.455625 84.13,54.555625 Z" id="Path" fill="url(#linearGradient-15)"></path>
            <path d="M122.823125,118.25375 L102.46,180.856875 C121.581875,185.338125 140.141875,191.65 158.074375,199.765625 L178.435625,137.16875 C160.505,129.049375 141.94625,122.735625 122.823125,118.25375 Z" id="Path" fill="url(#linearGradient-16)"></path>
            <path d="M196.601875,81.32 L210.1625,39.63 C192.23375,31.5025 173.67375,25.190625 154.55,20.715 L140.989375,62.404375 C160.113125,66.88625 178.67125,73.2 196.601875,81.32 Z" id="Path" fill="url(#linearGradient-17)"></path>
            <path d="M197.500625,235.323125 C197.500625,235.3225 200.578125,225.861875 205.22375,211.58 L104.24625,13.2425 C102.06625,13.0975 99.8825,12.96625 97.69,12.865 C80.325625,66.246875 62.9625,119.62875 45.598125,173.010625 C97.678125,175.42125 146.41375,190.189375 190.67375,216.9475 C196.94375,220.736875 199.7675,228.356875 197.500625,235.323125 Z" id="Path" fill="url(#linearGradient-18)"></path>
            <path d="M84.13,54.555625 C103.56875,55.455625 122.54125,58.080625 140.989375,62.404375 L154.55,20.715 C136.101875,16.3925 117.12875,13.765 97.688125,12.864375 L45.595625,173.0125 C65.036875,173.913125 84.01125,176.534375 102.459375,180.856875 L122.8225,118.25375 C104.374375,113.93 85.401875,111.305625 65.963125,110.405 C72.01875,91.788125 78.074375,73.171875 84.13,54.555625 Z" id="Path" fill="url(#linearGradient-19)"></path>
            <path d="M232.055,129.0875 C237.59125,112.0675 242.50875,96.948125 245.5975,87.455 C250.311875,72.96 244.050625,57.150625 230.678125,49.85375 C223.935625,46.170625 217.09625,42.765 210.1625,39.629375 L196.601875,81.319375 C203.535,84.459375 210.375625,87.863125 217.116875,91.5425 C230.475,98.8325 236.735,114.6125 232.055,129.0875 Z" id="Path" fill="url(#linearGradient-20)"></path>
            <path d="M198.95,147.391875 C192.20875,143.713125 185.368125,140.30875 178.435,137.16875 L158.07375,199.765625 C169.1875,204.80375 180.05875,210.528125 190.676875,216.948125 C193.805625,218.845 196.080625,221.693125 197.285,224.94375 C198.495625,228.196875 198.6325,231.839375 197.499375,235.32375 C197.499375,235.32375 204.793125,212.901875 213.88875,184.936875 C218.56875,170.461875 212.30875,154.681875 198.95,147.391875 Z" id="Path" fill="url(#linearGradient-21)"></path>
            <path d="M140.989375,62.404375 L122.8225,118.25375 C141.94625,122.735625 160.505,129.049375 178.435,137.16875 L196.601875,81.319375 C178.67125,73.2 160.113125,66.88625 140.989375,62.404375 Z" id="Path" fill="url(#linearGradient-22)"></path>
            <path d="M127.864375,59.64125 C113.578125,56.94125 98.990625,55.2425 84.130625,54.553125 L97.69125,12.864375 C98.909375,12.920625 100.116875,12.983125 101.33,13.05375 C102.3025,13.119375 103.276875,13.178125 104.249375,13.24375 L104.254375,13.253125 L127.864375,59.64125 Z" id="Path" fill="url(#linearGradient-23)"></path>
            <path d="M205.220625,211.58125 L197.499375,235.31875 C198.419375,232.49125 198.501875,229.553125 197.853125,226.805625 C197.755,226.385625 197.633125,225.966875 197.50125,225.551875 C197.436875,225.353125 197.366875,225.144375 197.288125,224.94125 C196.836875,223.72 196.235625,222.563125 195.494375,221.489375 C195.24875,221.126875 194.98375,220.774375 194.704375,220.440625 C194.564375,220.27375 194.425,220.1075 194.2775,219.93875 C193.83875,219.44875 193.36875,218.980625 192.858125,218.54 C192.190625,217.95875 191.46,217.4225 190.676875,216.95 C189.2125,216.06125 187.74125,215.195 186.2675,214.33625 C184.60625,213.359375 182.934375,212.411875 181.25375,211.469375 C181.05375,211.36375 180.84875,211.24875 180.64375,211.13375 C179.495,210.493125 178.34375,209.86 177.186875,209.241875 C176.540625,208.894375 175.894375,208.546875 175.238125,208.204375 C174.591875,207.856875 173.943125,207.516875 173.286875,207.174375 C172.638125,206.834375 171.98,206.49875 171.32125,206.16375 C170.899375,205.94625 170.463125,205.7225 170.03375,205.5025 C169.5,205.231875 168.958125,204.95875 168.414375,204.693125 C167.809375,204.39125 167.1975,204.086875 166.58375,203.79 C165.54,203.273125 164.486875,202.760625 163.435625,202.265 C162.114375,201.633125 160.7875,201.015625 159.459375,200.405625 C158.99625,200.190625 158.54,199.976875 158.074375,199.769375 L174.10875,150.475 L205.220625,211.58125 Z" id="Path" fill="url(#linearGradient-24)"></path>
            <path d="M164.301875,131.19875 C150.808125,125.88875 136.966875,121.5725 122.824375,118.25625 L136.425,76.44375 L164.301875,131.19875 Z" id="Path" fill="url(#linearGradient-25)"></path>
            <path d="M232.03875,129.14375 C232.045,129.125625 232.049375,129.106875 232.055625,129.08875 C226.215,147.044375 219.68625,167.11625 213.88875,184.938125 C213.883125,184.95625 213.878125,184.975 213.871875,184.993125 C221.226875,162.38375 228.111875,141.215625 232.03875,129.14375 Z" id="Path" fill="url(#linearGradient-26)"></path>
            <path d="M217.116875,91.5425 C210.375625,87.86375 203.535,84.459375 196.601875,81.319375 L178.435,137.16875 C185.368125,140.30875 192.20875,143.7125 198.95,147.391875 C212.30875,154.6825 218.56875,170.461875 213.88875,184.9375 C219.685625,167.115625 226.214375,147.04375 232.055625,129.088125 C236.735,114.6125 230.475,98.8325 217.116875,91.5425 Z" id="Path" fill="url(#linearGradient-27)"></path>
            <path d="M3.98125,300.9475 C0.955,299.963125 -0.7,296.7125 0.284375,293.685625 L94.511875,4 C95.49625,0.973125 98.7475,-0.68125 101.77375,0.303125 C104.8,1.2875 106.455,4.538125 105.470625,7.565 L11.243125,297.25 C10.25875,300.27625 7.0075,301.931875 3.98125,300.9475 Z" id="Path" fill="url(#linearGradient-28)"></path>
        </g>
    </g>
</svg>